<svg id="a8bcf335-cb7e-4b0b-a7ad-c6eeb66ea4a1" data-name="svg4504" xmlns="http://www.w3.org/2000/svg" xmlns:xlink="http://www.w3.org/1999/xlink" viewBox="0 0 213.33 194.9"><defs><clipPath id="aaa5e753-2f2b-48ca-98dd-c8b0729ea8fe" transform="translate(-5 -5)"><rect x="-288.33" y="-297.55" width="800" height="800" style="fill:none"/></clipPath></defs><g id="b126774c-ec91-43f1-9ec3-3b451c11ee1f" data-name="g4512"><g id="a60769ce-6259-4920-8ffe-675c662e4d6d" data-name="g4514"><g style="clip-path:url(#aaa5e753-2f2b-48ca-98dd-c8b0729ea8fe)"><g id="f4bba653-8bd1-47e3-a67c-8c607defc5bd" data-name="g4516"><g id="b887b908-3632-49b3-a573-fb67e1eac528" data-name="g4522"><path id="ab868d94-6348-4848-8d70-4670ef2c8b73" data-name="path4524" d="M111.67,19.21A106.69,106.69,0,0,0,20.57,181.4l27.87-29.59,141,.88-1,47.21A106.66,106.66,0,0,0,111.67,19.21" transform="translate(-5 -5)" style="fill:#33a0ff"/></g><g id="be3308be-f19b-4c9c-b492-26937c3afc08" data-name="g4526"><path id="e5136846-274b-403b-a3e7-954cf943a284" data-name="path4528" d="M63.45,49.61a9.5,9.5,0,0,1-8.88-10l.7-11.4a9.5,9.5,0,0,1,9.47-8.89l.56,0,11.39.7a9.48,9.48,0,0,1,8.87,10.06l-.7,11.35a6.14,6.14,0,0,1-.26,1.46l-.4,2-7.5,5.55Z" transform="translate(-5 -5)" style="fill:#3dcc8e"/></g><g id="aae38f57-f01f-432d-a1ce-17426de990ae" data-name="g4530"><path id="a10981ac-4a7a-49bb-b581-0a52438c56f6" data-name="path4532" d="M64.74,13.59A15.23,15.23,0,0,0,49.56,27.85l-.7,11.37v.05A15.25,15.25,0,0,0,63.1,55.33L74.27,56l4.16.25,3.36-2.48,4-3,3.53-2.61.81-4a12.2,12.2,0,0,0,.39-2.42l.7-11.36A15.21,15.21,0,0,0,77,14.32l-11.36-.71h0l-.9,0m8.5,24.82.42-6.76-6.77-.42L66.47,38l6.77.41M64.74,25H65l11.37.71a3.75,3.75,0,0,1,3.52,4l-.7,11.37a4.05,4.05,0,0,1-.12.5l-4,3L63.8,43.9a3.77,3.77,0,0,1-3.52-4L61,28.56A3.76,3.76,0,0,1,64.74,25" transform="translate(-5 -5)" style="fill:#282828"/></g><g id="f540189a-1641-4bb4-aadc-54e4eada36ff" data-name="g4534"><path id="bfd7840b-63b2-42cc-9963-c745ebf2868b" data-name="path4536" d="M111.67,74.5A80.65,80.65,0,0,0,44.58,199.9H182c7.23-13.21,10.32-28.85,10.32-44.76,0-41.22-36.11-80.64-80.64-80.64" transform="translate(-5 -5)" style="fill:#fff"/></g><g id="bd15552d-33c6-4e7e-a5cb-f89cc6046eae" data-name="g4538"><path id="a471ce33-80c7-4169-955b-84599eb3ced8" data-name="path4540" d="M111.67,68.78A86.33,86.33,0,0,0,37.83,199.9h13.8a74.88,74.88,0,0,1,60-119.68c19.62,0,38.41,8.22,52.91,23.13,14,14.38,22,33.26,22,51.79,0,12.69-2.09,29.93-11.2,44.76h13.06C194.75,187.21,198,172,198,155.14c0-21.49-9.2-43.27-25.24-59.77-16.68-17.15-38.38-26.59-61.12-26.59" transform="translate(-5 -5)" style="fill:#282827"/></g><g id="b633947c-354b-4a84-a08d-4c994f7bac4d" data-name="g4542"><path id="b50cebe1-4e70-4f18-a8b4-738dce245227" data-name="path4544" d="M95.39,178.55a7.75,7.75,0,1,1-7.75-7.74,7.75,7.75,0,0,1,7.75,7.74" transform="translate(-5 -5)" style="fill:#282827"/></g><g id="f5dd11bd-0bdd-47da-8121-edd82e3bae4a" data-name="g4546"><path id="f46464ac-15c8-487d-8c94-0e64bc6612c1" data-name="path4548" d="M143.43,178.55a7.74,7.74,0,1,1-7.74-7.74,7.74,7.74,0,0,1,7.74,7.74" transform="translate(-5 -5)" style="fill:#282827"/></g><g id="ee54172b-3939-4b51-b72e-9dbca7b8a7b1" data-name="g4550"><path id="ec813857-0c90-41d6-936f-f0d932c29ca1" data-name="path4552" d="M23.68,175.48l43-45.58L56.31,162.33c33.55-24.41,68.77-20.55,93.57-13.27,26.32,7.73,44.74-15.52,26.7-40.32a84.84,84.84,0,0,0-33.68-27.5c-35-15.56-70.25-6.49-94,17.51-25.17,25.42-25.21,53.62-25.21,76.73" transform="translate(-5 -5)" style="fill:#ff6f21"/></g><g id="b0272ff3-a9b2-4bf9-a92a-e07a1232300d" data-name="g4554"><path id="be86b1e0-ad5e-476d-b8a2-cc9acbeaa95c" data-name="path4556" d="M107.63,79.26a73.54,73.54,0,0,0-14.81,1.5,78.42,78.42,0,0,0-39.86,22c-18.66,18.84-22.54,39.07-23.34,58.06l50.13-53.17L66.48,149.28c24.94-13,53.47-15,85-5.71,10,2.94,19.13.71,23.74-5.83,4.74-6.72,3.51-16.3-3.27-25.63a79.49,79.49,0,0,0-31.39-25.64,81.08,81.08,0,0,0-32.94-7.21M18,189.89V175.48c0-23.89,0-53.62,26.86-80.76A89.9,89.9,0,0,1,90.51,69.55c18-3.69,36.89-1.46,54.71,6.46a91.08,91.08,0,0,1,36,29.36c9.66,13.28,10.95,28.21,3.38,39-7.41,10.51-21.66,14.52-36.33,10.22-33.82-9.93-63.62-5.76-88.58,12.41L45.54,177.24l8-25.1Z" transform="translate(-5 -5)" style="fill:#282827"/></g><g id="acc0c527-f9ef-4fd8-b00b-bafd1c566982" data-name="g4558"><path id="f3cc9f26-b158-499b-ad45-31626c30e963" data-name="path4560" d="M132.25,70.2A28.11,28.11,0,0,1,98.7,87C83.28,82.7,75.13,70.3,77.09,54.58S89.6,25.24,101.77,8.35c-10,21.29-1.5,23.28,1.19,23.18s6.53.34,12.05,2.17a27.9,27.9,0,0,1,17.24,36.5" transform="translate(-5 -5)" style="fill:#ff6f21"/></g><g id="fcc6d8a7-f2c7-4983-83cb-1b38cbecd9e4" data-name="g4562"><path id="f76251f2-e540-46c3-83bd-0e873a4dd935" data-name="path4564" d="M92.77,31.16c-5.28,8.29-9,16-10,24.13C81.16,68.19,87.7,78,100.25,81.53a22.3,22.3,0,0,0,26.66-13.38,22.18,22.18,0,0,0-13.7-29c-5.1-1.69-8.27-2-10-1.89a11.08,11.08,0,0,1-9.73-4.92,12.3,12.3,0,0,1-.68-1.17m13.31,62.62a33,33,0,0,1-8.93-1.23c-8.89-2.51-16-7.45-20.54-14.31S70.28,63,71.41,53.87c2-16.07,11.91-29.77,23.38-45.63L97.13,5,107,10.78c-4.84,10.32-4.29,14.14-4,15a41.65,41.65,0,0,1,13.89,2.48,33.63,33.63,0,0,1,20.79,44,33.91,33.91,0,0,1-31.52,21.52" transform="translate(-5 -5)" style="fill:#282827"/></g><g id="a5bd6d12-d6ee-436d-9d68-09c2d2c7412b" data-name="g4566"><path id="a02030f0-a2ba-4853-b116-d9ddbdeeb1fa" data-name="path4568" d="M117.79,120.9a6.62,6.62,0,0,1-5.15-2.44l-3.85-4.72a6.63,6.63,0,0,1,.67-9.08,6.57,6.57,0,0,1-2.19-1.74l-.87-1.07a6.63,6.63,0,0,1,.94-9.33l.55-.45-5.64-6.92A7.2,7.2,0,1,1,113.41,76l24.05,29.61a7.2,7.2,0,0,1-4,11.56,7.38,7.38,0,0,1-1.62.18h0a7.14,7.14,0,0,1-5-2l-4.91,4a6.64,6.64,0,0,1-4.2,1.5" transform="translate(-5 -5)" style="fill:#3dcc8e"/></g><g id="af887128-3abf-41c1-b1a4-c22f15151739" data-name="g4570"><path id="af1aaa77-3a4b-4c81-84b5-249db458cec6" data-name="path4572" d="M117,73.07a11.89,11.89,0,0,0-18.41,15L101.76,92a11.34,11.34,0,0,0,1,12.85l.59.72a11.3,11.3,0,0,0,1.8,11.17l3.85,4.72A11.34,11.34,0,0,0,125,123l2.31-1.88a11.84,11.84,0,0,0,4.62.93,11.4,11.4,0,0,0,2.67-.31,11.87,11.87,0,0,0,6.54-19.09l-24-29.58Zm-9.2,5a2.49,2.49,0,0,1,2,.92l24.05,29.6a2.53,2.53,0,0,1-1.38,4.05,2.76,2.76,0,0,1-.57.06,2.49,2.49,0,0,1-1.95-.92l-2.4-3-8.5,6.94a2,2,0,0,1-1.24.44,2,2,0,0,1-1.52-.72l-3.85-4.72a1.94,1.94,0,0,1,.27-2.73l8.55-7-3.49-4.31-4.23,3.46a1.86,1.86,0,0,1-2.62-.27L110,98.88a1.94,1.94,0,0,1,.28-2.73l4.17-3.41-8.59-10.55a2.51,2.51,0,0,1,.36-3.54,2.47,2.47,0,0,1,1.59-.57" transform="translate(-5 -5)" style="fill:#282828"/></g></g></g></g></g></svg>