<?xml version="1.0" encoding="UTF-8"?><svg id="uuid-08d619a5-5494-4c95-b026-6b966d8ad57c" xmlns="http://www.w3.org/2000/svg" viewBox="0 0 898.42 947.93"><g id="uuid-0ea5b0d6-f1fb-402e-8635-ca92d639f274"><path d="m895.42,944.91v1.52c0,.21.04.4.13.58.06.19.16.35.31.48.14.15.3.25.48.31.18.09.37.14.58.13l.4-.05c.25-.07.47-.2.66-.39.27-.29.44-.65.44-1.06v-1.52c0-.21-.04-.4-.13-.58-.06-.19-.16-.35-.31-.48-.14-.15-.3-.25-.48-.31-.18-.09-.37-.14-.58-.13l-.4.05c-.25.07-.47.2-.66.39-.27.29-.44.65-.44,1.06h0Z"/><path d="m6.02,4c.92,9.57,1.92,19.13,2.67,28.71.16,2.04.37,4.09.36,6.14-.01,1.93,2.99,1.93,3,0,.03-4.55-.6-9.17-1-13.7-.52-5.75-1.07-11.49-1.64-17.24-.13-1.3-.26-2.61-.39-3.91-.18-1.9-3.18-1.92-3,0h0Z"/><path d="m11.27,23.39c4.85-2.29,10.43-2.89,15.66-1.73,1.88.42,2.68-2.48.8-2.89-6.07-1.34-12.35-.61-17.97,2.03-.73.35-.92,1.4-.54,2.05.44.75,1.32.88,2.05.54h0Z"/><path d="m27.84,4.29c3.34,2,3.96-5.05.22-4.22-1.68.37-2.29,2.19-2.2,3.71.13,2.26.84,4.57,1.24,6.8,1.78,9.84,2.87,19.78,3.32,29.77.09,1.92,3.09,1.93,3,0-.31-6.87-.92-13.71-1.84-20.52-.45-3.36-.98-6.71-1.58-10.04-.3-1.67-.63-3.34-.96-5.01-.11-.52-.07-1.1-.18-1.61.04-.07.05-.14.04-.21-.06-.43-.45-.58-1.2-.45v-.05c-.03.77.52.52,1.67-.76-1.66-.99-3.17,1.6-1.51,2.59h0Z"/><path d="m46.64,22.21c.5,4.55.99,9.09,1.49,13.64.09.81.63,1.5,1.5,1.5.74,0,1.59-.69,1.5-1.5-.5-4.55-.99-9.09-1.49-13.64-.09-.81-.63-1.5-1.5-1.5-.74,0-1.59.69-1.5,1.5h0Z"/><path d="m47.98,4.46l-1.52-1.52c-.14-.15-.3-.25-.48-.31-.18-.09-.37-.14-.58-.13-.21,0-.4.04-.58.13-.19.06-.35.16-.48.31-.26.29-.46.66-.44,1.06l.05.4c.07.25.2.47.39.66l1.52,1.52c.14.15.3.25.48.31.18.09.37.14.58.13.21,0,.4-.04.58-.13.19-.06.35-.16.48-.31.26-.29.46-.66.44-1.06l-.05-.4c-.07-.25-.2-.47-.39-.66h0Z"/><path d="m69.64,25.23h-.94c-1.93,0-1.93,3,0,3h.94c1.93,0,1.93-3,0-3h-.94c-1.93,0-1.93,3,0,3h.94c1.93,0,1.93-3,0-3h0Z"/><path d="m7.42,89.39l-.99-1.01c0-.27.16-.36.49-.26.77-.27.3.14.31-.47.02-.52-.06-1.07-.05-1.6.02-1.43.06-2.87.13-4.3.15-3.03.4-6.04.77-9.05.73-5.96,1.93-11.86,3.53-17.64h-2.89c3.13,8.77,6.25,17.54,9.38,26.31.58,1.62,2.8,1.3,2.95-.4.72-8.27,3.36-16.26,7.63-23.37l-2.74-.36c3.38,11.81,5.43,23.95,6.1,36.21.11,1.92,3.11,1.93,3,0-.69-12.52-2.76-24.95-6.21-37.01-.36-1.25-2.08-1.47-2.74-.36-4.56,7.58-7.28,16.08-8.04,24.88l2.95-.4c-3.13-8.77-6.25-17.54-9.38-26.31-.48-1.34-2.48-1.5-2.89,0-2.34,8.51-3.8,17.25-4.33,26.06-.13,2.14-.24,4.3-.22,6.45.02,1.51.36,3.24,1.86,3.96,3.1,1.48,4.94-4.19,1.39-4.34-1.93-.08-1.93,2.92,0,3h0Z"/><path d="m38.94,69.46c-4.9,6.49-1.02,17.08,6.77,19.12.83.22,1.56-.28,1.85-1.05,1.23-3.36,2.45-6.73,3.68-10.09l-2.74.36c4.52,6.18,4.85,14.19,5.12,21.57.2,5.42-.06,14.56-7.26,15.11-2.48.19-5.19-.74-5.57-3.48-.26-1.9-3.16-1.09-2.89.8.94,6.77,10.58,7.01,14.64,3.12,3.04-2.92,3.93-7.42,4.1-11.46.18-4.35-.11-8.85-.66-13.17-.62-4.97-1.89-9.9-4.89-14-.78-1.07-2.28-.91-2.74.36-1.23,3.36-2.45,6.73-3.68,10.09l1.85-1.05c-6.07-1.59-8.7-9.77-4.97-14.71,1.16-1.54-1.44-3.04-2.59-1.51h0Z"/><path d="m83.12,72.33c1.26,6.72,2.19,13.49,2.78,20.3l2.8-.76c-3.74-6.48-3.22-15.47,1.77-21.21.57-.66,1.52-1.78,2.51-1.47.7.22,1.2,1.1,1.56,1.67,1.24,1.98,2.27,4.1,3.1,6.28,1.6,4.24,2.43,8.7,2.48,13.23.02,1.93,3.02,1.93,3,0-.05-4.27-.72-8.54-2.08-12.59-.68-2.05-1.53-4.05-2.52-5.97-.84-1.62-1.74-3.48-3.19-4.66-3.59-2.92-7.15,1.13-8.94,4.06-1.89,3.1-2.92,6.7-3.11,10.32-.21,4.12.76,8.27,2.83,11.85.71,1.22,2.93.77,2.8-.76-.61-7.07-1.58-14.11-2.89-21.09-.36-1.9-3.25-1.09-2.89.8h0Z"/><path d="m114.43,66.29c-2.91,2.28-5.15,5.3-6.58,8.7-1.29,3.07-2.14,6.69-1.34,10,.69,2.86,2.89,5.73,6.15,5.2,1.85-.3,3.41-1.67,4.69-2.96s2.37-2.76,3.24-4.33c1.97-3.56,2.87-7.7,2.44-11.74-.17-1.65-2.39-2.08-2.95-.4-2.21,6.68.41,14.24,6.06,18.33,1.57,1.13,3.07-1.47,1.51-2.59-4.59-3.32-6.45-9.62-4.69-14.94l-2.95-.4c.6,5.68-1.67,11.89-6.36,15.35-.8.59-1.83,1.09-2.74.45-.86-.61-1.28-1.78-1.52-2.76-.63-2.59.16-5.54,1.15-7.94,1.27-3.1,3.37-5.77,6-7.83.64-.5.52-1.59,0-2.12-.62-.64-1.49-.5-2.12,0h0Z"/><path d="m132.1,71.28c1.03,5.85,2.06,11.7,3.1,17.55l2.74-1.16c-2.81-5.8-2.13-12.82,1.52-18.09h-2.59c2.65,3.62,4.15,7.86,4.25,12.35.04,1.62,2.66,2.13,2.95.4.91-5.41,4.05-10.19,8.75-13.05l-2.2-.9c1.31,5.25,3.21,10.32,5.63,15.15.86,1.73,3.45.21,2.59-1.51-2.31-4.61-4.08-9.44-5.33-14.44-.23-.93-1.39-1.39-2.2-.9-5.31,3.24-9.09,8.7-10.12,14.84l2.95.4c-.12-4.98-1.71-9.84-4.66-13.86-.69-.94-1.91-.98-2.59,0-4.28,6.18-4.78,14.39-1.52,21.12.79,1.63,3.02.41,2.74-1.16-1.03-5.85-2.06-11.7-3.1-17.55-.33-1.9-3.23-1.09-2.89.8h0Z"/><path d="m166.11,81.84c3.55-5.48,5.63-11.76,6.15-18.26.1-1.3-1.71-1.97-2.56-1.06-3.6,3.83-7.53,8.35-6.85,14,.29,2.47,1.37,4.75,3.41,6.23,1.71,1.25,4.11,1.45,6.09.77,2.36-.82,4.17-2.72,4.26-5.29.07-1.93-2.93-1.93-3,0-.06,1.61-1.79,2.56-3.27,2.67-1.93.14-3.41-1.14-4.08-2.88-2.01-5.19,2.3-9.89,5.57-13.37l-2.56-1.06c-.48,5.97-2.48,11.73-5.74,16.75-1.05,1.62,1.54,3.13,2.59,1.51h0Z"/><path d="m210.57,72.18v12.12c0,1.93,3,1.93,3,0v-12.12c0-1.93-3-1.93-3,0h0Z"/><path d="m210.55,52.5h-1.52c-.21,0-.4.04-.58.13-.19.06-.35.16-.48.31-.15.14-.25.3-.31.48-.09.18-.14.37-.13.58l.05.4c.07.25.2.47.39.66.29.27.65.44,1.06.44h1.52c.21,0,.4-.04.58-.13.19-.06.35-.16.48-.31.15-.14.25-.3.31-.48.09-.18.14-.37.13-.58l-.05-.4c-.07-.25-.2-.47-.39-.66-.29-.27-.65-.44-1.06-.44h0Z"/><path d="m231.48,66.93c-1.32-1.79-3.47-2.67-5.66-2.07l.8,2.89c3.26-.95,7.12,1.24,7.91,4.64s-2.3,7.26-5.8,7.43c-1.92.09-1.93,3.1,0,3,4.15-.2,7.85-3.42,8.7-7.5s-1.36-8.02-5.02-9.8c-2.05-.99-4.37-1.31-6.59-.67-1.85.54-1.07,3.41.8,2.89.79-.22,1.76-.01,2.27.69.48.65,1.3.98,2.05.54.64-.38,1.02-1.4.54-2.05h0Z"/><path d="m269.33,57.63c1.52-2.33-2.44-4.37-3.8-1.99-.73,1.28-.17,2.85.13,4.16.38,1.64.79,3.28,1.21,4.91,1.72,6.61,3.77,13.12,6.12,19.53.5,1.38,2.42,1.47,2.89,0,1.72-5.37,3.45-10.75,5.17-16.12h-2.89c1.48,4.75,4.15,9.03,7.81,12.41.64.59,1.94.62,2.36-.3,4.31-9.69,6.58-20.16,6.59-30.77,0-1.93-3-1.93-3,0,0,10.06-2.09,20.06-6.18,29.26l2.36-.3c-3.28-3.04-5.71-6.81-7.04-11.09-.45-1.43-2.44-1.42-2.89,0-1.72,5.37-3.45,10.75-5.17,16.12h2.89c-1.63-4.45-3.12-8.95-4.45-13.49-.65-2.23-1.27-4.48-1.85-6.74-.28-1.09-.55-2.18-.81-3.27-.15-.62-.3-1.25-.44-1.88-.06-.24-.11-.49-.16-.73.02-.69-.46-1.1-1.44-1.22-1.06,1.62,1.54,3.13,2.59,1.51h0Z"/><path d="m297.12,72.95c1.31,2.91,1.79,6.32,1.35,9.44-.11.8.2,1.61,1.05,1.85.7.19,1.73-.24,1.85-1.05.57-4.04.02-8.02-1.65-11.75-.33-.74-1.41-.92-2.05-.54-.76.45-.87,1.31-.54,2.05h0Z"/><path d="m300.36,55.46l-1.49-.21c-.2-.06-.4-.07-.6-.03-.2,0-.39.07-.56.18-.17.09-.32.22-.42.39-.13.14-.22.31-.27.51l-.05.4c0,.27.07.52.2.76l.23.3c.19.19.41.31.66.39l1.49.21c.2.06.4.07.6.03.2,0,.39-.07.56-.18.17-.09.32-.22.42-.39.13-.14.22-.31.27-.51l.05-.4c0-.27-.07-.52-.2-.76l-.23-.3c-.19-.19-.41-.31-.66-.39h0Z"/><path d="m311.5,58.03c-1.66,9.38-1.66,18.92,0,28.3.33,1.9,3.23,1.09,2.89-.8-1.56-8.82-1.56-17.89,0-26.71.33-1.89-2.56-2.7-2.89-.8h0Z"/><path d="m322.82,58.55c-.32,9.59-.63,19.17-.95,28.76-.06,1.93,2.94,1.93,3,0,.32-9.59.63-19.17.95-28.76.06-1.93-2.94-1.93-3,0h0Z"/><path d="m336.31,87.32c1.93,0,1.93-3,0-3s-1.93,3,0,3h0Z"/><path d="m3.09,105.6c1.54,11.91,4.29,23.62,8.28,34.95.48,1.37,2.45,1.48,2.89,0,2.99-9.93,5.97-19.85,8.96-29.78l-2.95-.4c1.02,9.74,2.89,19.37,5.63,28.78.44,1.51,2.38,1.33,2.89,0,4.45-11.69,6.51-24.22,6.05-36.72-.07-1.92-3.07-1.93-3,0,.45,12.26-1.58,24.46-5.94,35.92h2.89c-2.67-9.14-4.53-18.5-5.53-27.98-.17-1.62-2.43-2.11-2.95-.4-2.99,9.93-5.97,19.85-8.96,29.78h2.89c-3.9-11.06-6.67-22.52-8.18-34.15-.24-1.89-3.25-1.91-3,0h0Z"/><path d="m42.77,131.18c4.31-1.49,8.86-4.54,10.92-8.76,1.01-2.07,1.3-4.56-.27-6.43-1.26-1.5-3.28-1.83-5.1-1.33-4.46,1.22-6.58,5.69-7.04,9.95-.26,2.43.08,4.97.99,7.24.83,2.07,2.18,4.41,4.65,4.65,1.54.15,2.89-.61,4.17-1.36,1.44-.84,2.88-1.68,4.33-2.52,2.88-1.68,5.77-3.36,8.65-5.04,1.67-.97.16-3.56-1.51-2.59-3.97,2.31-7.93,4.62-11.9,6.93-.87.51-1.77,1.18-2.73,1.49-.85.27-1.4-.09-1.91-.77-1.02-1.38-1.55-3.28-1.74-4.96-.36-3.13.31-7.17,2.99-9.18.83-.62,2.13-1.32,3.21-.99,1.47.46,1.1,2.36.61,3.41-1.65,3.52-5.56,6.15-9.13,7.38-1.81.63-1.03,3.52.8,2.89h0Z"/><path d="m66.19,101.97c-2.93,12.24-3.39,24.92-1.42,37.34.3,1.9,3.19,1.09,2.89-.8-1.89-11.87-1.38-24.06,1.42-35.75.45-1.88-2.44-2.68-2.89-.8h0Z"/><path d="m82.86,116.12c-6.45,1.8-8.64,10.24-5.62,15.73.86,1.56,2.2,2.87,3.81,3.64.73.35,1.62.2,2.05-.54.38-.65.2-1.7-.54-2.05-5.42-2.59-4.69-12.28,1.09-13.89,1.86-.52,1.07-3.41-.8-2.89h0Z"/><path d="m95.87,121.45c.99-.55,1.94-.72,3.21-.57-.28-.03.23.04.23.04.1.02.21.04.31.07.31.07.62.17.92.27.41.15.98.45,1.5.8,1.85,1.25,2.87,3.43,2.23,5.61s-2.8,4.07-5.18,4.44c-1.01.16-2.16-.07-3.08-.61-.49-.29-.67-.44-1.11-.91-.4-.43-.6-.71-.92-1.31-.55-1.03-.82-2.18-.78-3.42,0-.15.02-.31.03-.46.02-.18.02-.2,0-.06.02-.1.03-.2.05-.3.06-.3.14-.59.24-.88.14-.4.53-1.11.83-1.45.53-.61.6-1.52,0-2.12-.54-.54-1.59-.62-2.12,0-4.42,5.13-1.04,14.47,6.07,14.56,3.48.05,6.97-2.28,8.39-5.44s.7-6.92-1.95-9.31c-2.79-2.52-7.01-3.41-10.38-1.53-1.69.94-.18,3.53,1.51,2.59h0Z"/><path d="m112.08,122.18l.04,13.2,2.95-.4c-1.26-5.99,1.58-12.45,6.79-15.64l-2.2-.9c1.58,3.99,2.14,8.19,1.65,12.45-.19,1.67,2.02,1.77,2.8.76,2.06-2.68,4.11-5.35,6.17-8.03l-2.36.3c2.33,2.23,5.01,4.01,7.99,5.25,1.42.6,2.89,1.07,4.4,1.4,1.43.31,3.32.79,4.78.54,1.3-.22,1.97-2.1,2.37-3.19.48-1.3.69-2.73.66-4.11-.07-2.84-1.14-5.53-3.08-7.6-.36-.38-.96-.53-1.46-.39-5.64,1.64-6.15,8.13-5,12.98.63,2.68,1.82,5.95,3.98,7.78,2.38,2.02,6.63,1.23,6.84-2.3.12-1.93-2.88-1.92-3,0-.05.75-1.38.4-1.73.16-.88-.6-1.41-1.74-1.87-2.66-.81-1.63-1.36-3.44-1.62-5.25-.42-2.9-.14-6.86,3.19-7.82l-1.46-.39c2.69,2.87,2.89,7.35.68,10.55l1.3-.74c-5.55-.23-10.84-2.49-14.85-6.34-.77-.74-1.77-.46-2.36.3-2.06,2.68-4.11,5.35-6.17,8.03l2.8.76c.52-4.49-.09-9.05-1.75-13.25-.34-.87-1.3-1.45-2.2-.9-6.4,3.92-9.7,11.7-8.17,19.02.35,1.68,2.95,1.27,2.95-.4l-.04-13.2c0-1.93-3.01-1.93-3,0h0Z"/><path d="m197.4,103.5c-.68,10.68-1.37,21.35-2.05,32.03h3c.02-1.42.05-2.84.07-4.25.03-1.93-2.97-1.93-3,0-.02,1.42-.05,2.84-.07,4.25-.03,1.95,2.88,1.91,3,0,.68-10.68,1.37-21.35,2.05-32.03.12-1.93-2.88-1.92-3,0h0Z"/><path d="m191.35,119.48l17.7-3.66-1.46-2.51c-2.49,3.21-2.75,7.45-1.04,11.11s5.66,6.04,9.77,5.14,7.56-4.84,7.7-9.07c.13-3.93-2.87-7.02-6.61-7.69-4.02-.72-8.35.92-9.79,4.96-.65,1.82,2.25,2.61,2.89.8,1.59-4.47,9.66-3.7,10.45.94.5,2.92-1.81,5.83-4.42,6.86s-5.39-.09-6.86-2.45c-1.54-2.47-1.84-6.07.02-8.48.9-1.16.1-2.83-1.46-2.51l-17.7,3.66c-1.89.39-1.09,3.28.8,2.89h0Z"/><path d="m263.12,118.15l1.43,1.15c-1.04-.17-1.46,0-1.26.52-.01.14.08.36.1.51.08.58.07,1.19.1,1.78.06,1.34.11,2.69.12,4.03.04,2.62-.02,5.24-.15,7.86l2.95-.4c-1.23-5.39,1.15-11.33,5.77-14.36l-2.05-.54c2.43,5.22,3.28,11.01,2.64,16.72h3c.36-7.58,3.07-14.86,7.64-20.91h-2.59c2.84,6.51,3.61,13.88,2.21,20.84-.38,1.89,2.51,2.69,2.89.8,1.57-7.82.68-15.85-2.51-23.15-.5-1.15-2-.78-2.59,0-4.88,6.47-7.66,14.34-8.04,22.42-.09,1.96,2.79,1.87,3,0,.71-6.25-.4-12.54-3.05-18.24-.33-.71-1.42-.95-2.05-.54-5.78,3.8-8.69,11-7.15,17.75.39,1.71,2.87,1.24,2.95-.4.13-2.55.18-5.1.15-7.65-.02-1.27-.05-2.55-.11-3.82-.05-1.15,0-2.4-.33-3.51-.51-1.75-2.75-3.11-4.1-1.34-1.2,1.57-.17,3.65,1.83,3.36.81-.12,1.24-1.13,1.05-1.85-.23-.86-1.05-1.16-1.85-1.05h0Z"/><path d="m296.7,121.43l-2.6-4.43c-.68-1.15-2.35-.85-2.74.36-1.69,5.18-.51,10.84,2.91,15.04.49.6,1.63.56,2.12,0,3.17-3.63,5.48-7.88,6.73-12.54h-2.89c3.52,15.12,2.09,31.21-3.82,45.54-1.67,4.05-3.74,7.93-6.1,11.62l2.36-.3c-4.29-3.83-6.56-9.38-6.2-15.12.12-1.93-2.88-1.92-3,0-.4,6.46,2.26,12.93,7.08,17.24.74.66,1.81.54,2.36-.3,8.69-13.54,12.96-29.83,12.14-45.9-.23-4.57-.88-9.11-1.92-13.57-.34-1.46-2.52-1.4-2.89,0-1.12,4.15-3.13,7.97-5.96,11.21h2.12c-2.75-3.38-3.48-8.01-2.14-12.12l-2.74.36,2.6,4.43c.98,1.66,3.57.16,2.59-1.51h0Z"/><path d="m334.93,117.65c-.31,5.05,1.55,10,5.02,13.67.52.55,1.61.61,2.12,0,2.39-2.85,4.54-5.89,6.4-9.12l-2.8-.76c-.5,5.75,6.72,8.45,11.31,6.66,6.6-2.58,6.85-11.34,5.33-17.11-.49-1.87-3.38-1.07-2.89.8,1.08,4.12,1.51,11.08-3.12,13.36-2.78,1.36-7.96.07-7.63-3.7.13-1.53-2.09-1.98-2.8-.76-1.73,3.01-3.7,5.85-5.93,8.51h2.12c-2.95-3.12-4.4-7.27-4.14-11.55.12-1.93-2.88-1.92-3,0h0Z"/><path d="m365.68,127.74c5.71-3.53,8.68-10.3,7.58-16.89-.19-1.16-1.76-1.38-2.51-.66-2.71,2.6-5.05,5.61-6.88,8.9-1.56,2.81-2.92,5.81-3.08,9.07-.11,2.46.39,5.34,2.25,7.1,2.62,2.5,6.02,1.2,8.71-.44,3.98-2.44,7.69-5.32,11.07-8.54,1.4-1.33-.72-3.45-2.12-2.12-3.25,3.1-6.81,5.85-10.65,8.18-1.26.77-2.97,1.92-4.47,1.1-.95-.52-1.36-1.65-1.59-2.64-.7-3.01.33-5.94,1.64-8.62,1.82-3.7,4.26-7.01,7.24-9.87l-2.51-.66c.87,5.23-1.72,10.73-6.2,13.5-1.64,1.01-.13,3.61,1.51,2.59h0Z"/><path d="m386.24,99.47c1.58,11.89,2.13,23.9,1.64,35.89l2.8-.76c-1.63-2.85-2.05-6.25-1.29-9.44.39-1.66,1.07-3.22,2.05-4.62.78-1.12,2.6-3.56,4.13-2.7,1.61.91,3.06,2.82,4.08,4.33,1.09,1.59,1.95,3.34,2.31,5.25.57,3.03-.47,5.86-3.32,7.19-1.95.91-5.31,1.17-6.31-1.26-.73-1.76-3.63-.99-2.89.8,1.45,3.52,5.09,4.68,8.63,3.82,3.94-.96,6.64-4.05,7-8.08.46-5.17-2.86-10.19-6.54-13.51-.91-.82-1.89-1.56-3.13-1.73-1.49-.2-2.75.49-3.87,1.41-1.73,1.42-3.1,3.32-4.01,5.36-2.08,4.7-2,10.21.57,14.71.76,1.33,2.74.69,2.8-.76.49-11.99-.06-24-1.64-35.89-.11-.81-.61-1.49-1.5-1.5-.73,0-1.61.7-1.5,1.5h0Z"/><path d="m420.25,115.53c-4.81-1.36-10.33,1.08-12.43,5.66-.41.9-.09,1.89.9,2.2,2.7.86,5.28,2.51,6.72,5.02,1.31,2.3,1.24,5.12-.35,7.28-1.3,1.76-3.63,2.72-5.54,1.31-1.43-1.06-2.65-3.49-1.27-5.05,1.28-1.44-.84-3.57-2.12-2.12-3.78,4.27.58,11.44,6.03,10.83,2.92-.33,5.24-2.45,6.38-5.09,1.22-2.85,1-5.98-.54-8.68-1.81-3.19-5.08-5.3-8.51-6.4l.9,2.2c1.55-3.39,5.42-5.3,9.04-4.28,1.86.52,2.66-2.37.8-2.89h0Z"/><path d="m431.78,122.18v12.12c0,1.93,3,1.93,3,0v-12.12c0-1.93-3-1.93-3,0h0Z"/><path d="m430.25,103.99c1.93,0,1.93-3,0-3s-1.93,3,0,3h0Z"/><path d="m454.65,106.47c3.24-.88.25-6.04-2.38-3.48-1.19,1.15-1.16,3.1-1.34,4.62-.26,2.11-.47,4.22-.64,6.33-.65,8.3-.57,16.65.2,24.94l2.95-.4c-.23-1.52-.46-3.04-.69-4.55-.29-1.9-3.18-1.09-2.89.8.23,1.52.46,3.04.69,4.55.25,1.66,3.1,1.28,2.95-.4-.54-5.77-.74-11.57-.59-17.36.07-2.86.23-5.71.47-8.55.12-1.38.26-2.76.41-4.14.08-.73.17-1.46.27-2.19.05-.37.68-3.3-.19-3.06-1.86.51-1.07,3.4.8,2.89h0Z"/><path d="m444.29,123.64c4.16-1.61,8.67-1.61,12.84-.01.76.29,1.65-.32,1.85-1.05.23-.85-.29-1.55-1.05-1.85-4.59-1.77-9.84-1.76-14.43.01-.76.29-1.28,1.01-1.05,1.85.2.72,1.09,1.34,1.85,1.05h0Z"/><path d="m469.7,126.9c4.16-.52,9.1-2.27,9.68-7.06.21-1.76-.26-3.65-1.5-4.96s-3.35-1.8-5.06-1.16c-3.78,1.42-5.19,6.15-5.7,9.76-.35,2.45-.32,5.04,1.11,7.18,1.17,1.75,2.99,2.94,4.98,3.58,5.3,1.69,10.45-1.05,14.91-3.65,1.67-.97.16-3.57-1.51-2.59-3.14,1.83-6.59,3.93-10.36,3.77-2.87-.13-5.84-1.77-6.27-4.82-.25-1.77.11-3.73.58-5.44.36-1.3.89-2.63,1.73-3.71.62-.8,1.49-1.53,2.56-1.31.97.2,1.46,1.15,1.58,2.06.47,3.65-3.88,4.99-6.72,5.35-.8.1-1.5.62-1.5,1.5,0,.73.69,1.6,1.5,1.5h0Z"/><path d="m502.98,129.77h-1.52c-.21,0-.4.04-.58.13-.19.06-.35.16-.48.31-.15.14-.25.3-.31.48-.09.18-.14.37-.13.58l.05.4c.07.25.2.47.39.66.29.27.65.44,1.06.44h1.52c.21,0,.4-.04.58-.13.19-.06.35-.16.48-.31.15-.14.25-.3.31-.48.09-.18.14-.37.13-.58l-.05-.4c-.07-.25-.2-.47-.39-.66-.29-.27-.65-.44-1.06-.44h0Z"/><path d="m13.24,200.51c-1.47,9.68-1.83,19.48-1.01,29.24.16,1.91,3.16,1.93,3,0-.8-9.48-.52-19.03.9-28.44.29-1.89-2.6-2.7-2.89-.8h0Z"/><path d="m2.06,204.63c7.91-2.21,15.6-5.13,23-8.69l-2.26-1.3c.94,12.03,1.88,24.07,2.82,36.1h3c-.39-4.46.24-8.82,1.89-12.99l-1.85,1.05c4.94,1.07,9.27,3.71,12.5,7.59.51.61,1.6.55,2.12,0,4-4.24,6.05-10.11,5.39-15.92-.13-1.11-1.66-2.2-2.56-1.06-3.43,4.34-8.57,11.87-3.55,16.99,3.03,3.09,9.37,3.81,11-1.06.62-1.83-2.28-2.62-2.89-.8-.91,2.72-5.08.93-6.29-.58s-.91-3.92-.3-5.7c.86-2.49,2.53-4.68,4.15-6.72l-2.56-1.06c.57,5.05-1.01,10.09-4.51,13.8h2.12c-3.52-4.24-8.43-7.2-13.82-8.36-.86-.19-1.53.26-1.85,1.05-1.73,4.37-2.41,9.1-1.99,13.78.17,1.9,3.15,1.93,3,0-.94-12.03-1.88-24.07-2.82-36.1-.09-1.18-1.19-1.81-2.26-1.3-7.17,3.46-14.62,6.25-22.28,8.39-1.86.52-1.07,3.41.8,2.89h0Z"/><path d="m66.23,226.2c-2.63-1.37-3.93-4.81-2.8-7.42,1.23-2.86,4.71-4.1,7.47-3.09.76.28,1.64-.31,1.85-1.05.23-.83-.28-1.57-1.05-1.85-3.19-1.16-6.99-.12-9.33,2.29-2.51,2.59-2.89,6.38-1.46,9.6.77,1.73,2.13,3.22,3.81,4.1s3.23-1.7,1.51-2.59h0Z"/><path d="m78.54,225.98c3.08-4.79,5.11-10.23,5.88-15.88.2-1.49-1.29-2.47-2.51-1.46-4.61,3.83-7.66,9.4-8.44,15.34-.1.77-.35,1.69.17,2.36.46.6,1.32,1.03,1.95,1.42,1.35.83,2.8,1.5,4.28,2.05,3.01,1.11,6.27,1.59,9.47,1.42,1.92-.1,1.93-3.1,0-3-4.96.25-9.75-1.19-13.77-4.1l.74,1.3c.46-5.72,3.32-11.01,7.72-14.67l-2.51-1.46c-.74,5.42-2.62,10.56-5.57,15.16-1.05,1.63,1.55,3.13,2.59,1.51h0Z"/><path d="m128.55,212.59c-1.64,4.13-1.99,8.65-1.15,13,.15.8,1.11,1.25,1.85,1.05.83-.23,1.2-1.05,1.05-1.85-.74-3.83-.29-7.79,1.15-11.41.3-.75-.33-1.65-1.05-1.85-.85-.23-1.54.29-1.85,1.05h0Z"/><path d="m128.28,190.82l-1.52-1.52c-.14-.15-.3-.25-.48-.31-.18-.09-.37-.14-.58-.13-.21,0-.4.04-.58.13-.19.06-.35.16-.48.31-.26.29-.46.66-.44,1.06l.05.4c.07.25.2.47.39.66l1.52,1.52c.14.15.3.25.48.31.18.09.37.14.58.13.21,0,.4-.04.58-.13.19-.06.35-.16.48-.31.26-.29.46-.66.44-1.06l-.05-.4c-.07-.25-.2-.47-.39-.66h0Z"/><path d="m141.22,205.65c-2.92-.67-6,.18-8.11,2.33-.55.57-.6,1.56,0,2.12,3.06,2.88,8.36,5.2,8.96,9.86.11.85,0,1.79-.46,2.52-.29.46-.85.83-1.4,1-.63.2-1.15.23-1.7.11-.21-.05-.52-.18-.59-.24-.26-.2-.37-.4-.42-.52-.28-.76-1.01-1.28-1.85-1.05-.73.2-1.33,1.08-1.05,1.85,1.37,3.65,6.25,3.84,8.82,1.33,3.49-3.41,1.01-9-1.91-11.82-1.95-1.89-4.32-3.3-6.29-5.16v2.12c1.35-1.38,3.3-2,5.19-1.56s2.68-2.46.8-2.89h0Z"/><path d="m151.48,210.06l-.09,13.25c0,.74.57,1.39,1.3,1.47.67.08,1.53-.33,1.65-1.07.38-2.42.94-4.82,1.68-7.16.35-1.1.72-2.2,1.18-3.26.34-.8.77-1.69,1.49-2.22.55-.41.98-.46,1.62-.44.52.02,1.27.29,1.85.64,1.39.84,2.19,2.16,2.44,3.82.39,2.65-.57,5.37-1.38,7.85-.25.77.29,1.64,1.05,1.85.81.22,1.59-.28,1.85-1.05.88-2.68,1.78-5.54,1.52-8.41-.23-2.47-1.23-4.62-3.22-6.14-1.65-1.26-3.95-2-5.99-1.29-2.57.89-3.65,3.34-4.53,5.71-1.12,3.01-1.93,6.14-2.43,9.32l2.95.4.09-13.25c.01-1.93-2.99-1.93-3,0h0Z"/><path d="m178.75,191.88v6.06c0,.78.69,1.54,1.5,1.5s1.5-.66,1.5-1.5v-6.06c0-.78-.69-1.54-1.5-1.5s-1.5.66-1.5,1.5h0Z"/><path d="m201.55,193c-2.25,11.6-2.78,23.48-1.51,35.23.21,1.9,3.21,1.92,3,0-1.24-11.48-.79-23.1,1.4-34.44.37-1.89-2.53-2.69-2.89-.8h0Z"/><path d="m197,217.82c.87-5.29,6.28-9.5,11.54-8.72.8.12,1.61-.2,1.85-1.05.19-.71-.24-1.73-1.05-1.85-6.87-1.01-14.08,3.83-15.23,10.82-.13.8.21,1.61,1.05,1.85.72.2,1.71-.24,1.85-1.05h0Z"/><path d="m253.02,205.51l1.7,14.56,2.95-.4c-.33-2.08.79-4.7,2.93-5.34,2-.6,4.49,1.4,3.87,3.51l2.95.4c-.21-5.66,3.63-11.01,9.09-12.55l-1.85-1.05c1.4,5.25,2.28,10.6,2.61,16.02.12,1.92,3.12,1.93,3,0-.34-5.68-1.25-11.32-2.71-16.82-.21-.78-1.07-1.27-1.85-1.05-6.7,1.9-11.55,8.47-11.29,15.45.06,1.68,2.46,2.05,2.95.4,1.2-4.07-2.91-8.01-6.93-7.34s-6.25,5.31-5.65,9.17c.26,1.65,3.14,1.28,2.95-.4l-1.7-14.56c-.22-1.89-3.22-1.92-3,0h0Z"/><path d="m292.09,205.92c-3.96,1.5-5.22,6.34-3.53,10,.89,1.94,2.73,3.22,4.84,3.44s4.4-.87,5.83-2.46c1.67-1.85,2.61-4.58,1.6-6.99-.31-.75-.99-1.28-1.85-1.05-.7.19-1.36,1.09-1.05,1.85.08.19.15.39.21.59.03.1.05.2.07.3s.03.36,0,.02c.01.2.03.4.02.6,0,.08-.01.16-.01.24-.01.35.06-.23-.01.08-.05.2-.08.39-.14.58-.03.08-.26.64-.11.32-.18.37-.39.72-.62,1.07s.13-.14-.03.04c-.07.08-.13.16-.2.24-.14.15-.29.3-.44.44-.06.06-.12.11-.19.17,0,0-.32.25-.14.12s-.15.1-.15.1c-.1.07-.21.14-.31.2-.18.11-.36.19-.54.29-.25.13-.03.01.02,0-.11.04-.23.08-.34.12-.17.05-.35.09-.52.14-.09.02-.37.05-.02.01-.12.01-.24.02-.36.03-.2,0-.4,0-.6-.01-.28-.02-.01,0,.04,0-.12-.03-.24-.05-.36-.08-.08-.02-.16-.04-.24-.07,0,0-.39-.15-.16-.06.21.09-.11-.06-.12-.06-.09-.05-.19-.1-.28-.16-.07-.04-.14-.11-.22-.14-.18-.08.26.23.02.01-.11-.1-.23-.2-.34-.32-.1-.1-.34-.41-.13-.13-.12-.17-.24-.34-.34-.52-.09-.15-.16-.31-.24-.46.16.32-.01-.04-.06-.18-.12-.35-.19-.71-.26-1.08.08.43,0-.12-.01-.24,0-.16-.01-.32,0-.48s.01-.32.03-.48c0-.09.08-.44,0-.03.02-.1.04-.21.06-.32.08-.38.2-.75.34-1.11-.15.39.09-.15.14-.25.09-.17.2-.32.3-.48.18-.28-.17.16-.02.02.09-.08.16-.18.24-.27.12-.12.25-.23.38-.35-.29.26-.05.04.03-.01.09-.06.18-.11.27-.17.06-.04.12-.07.19-.1.06-.03.13-.06.19-.09-.19.08-.21.09-.06.03.76-.29,1.28-1.01,1.05-1.85-.2-.73-1.08-1.34-1.85-1.05h0Z"/><path d="m312.07,205.47c-4.49-.21-8.31,4.01-8.36,8.36s3.91,7.42,8.07,7.47c2.22.03,4.51-.82,5.98-2.53.53-.61.6-1.52,0-2.12-.54-.54-1.59-.62-2.12,0-.12.15-.25.29-.39.42-.06.06-.48.41-.22.21-.3.23-.63.4-.96.58-.24.13-.04.02.02,0-.1.04-.19.08-.29.11-.18.06-.36.12-.54.16-.16.04-.33.08-.49.11-.08.01-.17.03-.25.04.37-.05-.05,0-.1,0-.36.03-.72.03-1.08,0-.11,0-.21-.02-.32-.03.06,0,.31.06.02,0-.21-.04-.42-.08-.62-.13-.16-.04-.33-.09-.49-.14-.08-.03-.16-.05-.24-.08,0,0-.38-.15-.17-.06s-.17-.08-.17-.08c-.08-.04-.15-.07-.22-.11-.18-.1-.36-.2-.54-.32-.09-.06-.44-.32-.2-.13-.14-.12-.29-.24-.42-.37s-.26-.27-.38-.41c-.04-.04-.17-.22,0,.01-.07-.1-.15-.2-.21-.31-.09-.14-.18-.29-.25-.44-.04-.08-.08-.15-.11-.23.12.25.01.04,0-.02-.07-.2-.13-.39-.18-.59-.03-.11-.05-.22-.07-.33-.06-.28,0,.1-.01-.07-.02-.39-.02-.77,0-1.16.02-.3.01-.07,0,0,.02-.11.04-.22.07-.34.05-.22.11-.45.18-.66.03-.09.23-.59.12-.35.08-.17.16-.34.25-.5.1-.18.21-.36.32-.54.05-.08.1-.15.16-.23.04-.06.08-.11.12-.17-.08.1-.09.11-.02.03.3-.36.62-.69.97-.99.03-.02.25-.2.12-.1-.12.09.2-.14.24-.16.19-.13.39-.24.59-.35.08-.04.16-.08.24-.12.1-.04.08-.04-.05.02.06-.03.13-.05.19-.07.22-.07.43-.14.65-.19.09-.02.18-.04.27-.06.11-.02.09-.02-.06,0,.07,0,.14-.02.21-.02.26-.02.51-.02.76,0,.81.04,1.5-.72,1.5-1.5,0-.84-.69-1.46-1.5-1.5h0Z"/><path d="m325.54,189.93c-1.49,9.58-1.91,19.27-1.18,28.94.14,1.91,2.96,1.95,3,0,.05-2.59.47-7.94,3.73-8.62,1.94-.4,3.51,1.3,4.08,3,.87,2.62-.19,5.54-1.01,8.04-.6,1.84,2.29,2.63,2.89.8,1.07-3.28,2.14-6.94.76-10.29-1.09-2.64-3.57-4.82-6.57-4.58-5.48.45-6.79,7.24-6.88,11.66h3c-.71-9.39-.37-18.84,1.08-28.14.29-1.89-2.6-2.7-2.89-.8h0Z"/><path d="m386.33,194.91c.7,9.46.04,18.95-2.01,28.21l2.95.4c.07-2.51.48-4.97,1.25-7.36.56-1.73,1.39-4.57,3.54-4.83,1.76-.21,3.48,1.11,4.28,2.57,1.17,2.12,1.21,4.68,1.28,7.04.03.96.94,1.72,1.9,1.45,7.36-2.09,12.64-9.55,11.99-17.21-.06-.76-.64-1.56-1.5-1.5-5.06.36-7.66,5.7-6.77,10.3,1.06,5.49,7.21,7.35,11.96,5.43,2.9-1.18,5.16-3.39,6.27-6.33.68-1.81-2.22-2.59-2.89-.8-1.51,4-8,7.01-11.33,3.31-2.33-2.59-1.21-8.64,2.76-8.92l-1.5-1.5c.54,6.35-3.63,12.56-9.79,14.32l1.9,1.45c-.1-3.06-.24-6.42-2-9.06-1.42-2.13-3.95-3.71-6.57-3.56-3,.18-4.69,2.57-5.74,5.13-1.3,3.2-1.96,6.61-2.06,10.06-.05,1.67,2.58,2.07,2.95.4,2.11-9.51,2.84-19.29,2.12-29.01-.14-1.91-3.14-1.93-3,0h0Z"/><path d="m427.89,217.31s-.41-.16-.21-.08-.23-.11-.21-.1c-.17-.08-.34-.17-.51-.26-.42-.23-.82-.49-1.2-.78.2.15-.04-.04-.09-.08-.09-.08-.18-.16-.27-.24-.14-.13-.28-.26-.41-.4-.17-.17-.33-.34-.48-.53-.06-.07-.12-.15-.18-.22.17.21-.07-.1-.11-.15-.24-.34-.46-.7-.65-1.08-.05-.1-.1-.21-.15-.31-.11-.24.11.32-.04-.08-.08-.21-.15-.43-.22-.65s-.1-.44-.15-.66c-.01-.06-.04-.29,0,0,0-.09-.02-.18-.03-.27-.02-.22-.02-.45-.01-.67,0-.09.01-.18.02-.27.02-.43-.07.28.02-.14.04-.23.09-.45.16-.67.05-.15.21-.52.05-.19.07-.15.14-.3.23-.44.07-.12.39-.47.11-.18.21-.21.41-.42.63-.63.23-.22-.21.12-.03.02.07-.04.14-.1.21-.14.14-.09.28-.18.43-.25.1-.05.6-.25.19-.1.13-.05.25-.1.38-.14.32-.11.65-.16.99-.24-.43.1.03,0,.15,0,.15-.01.3-.02.45-.01.17,0,.33.01.5.02.06,0,.14,0,.2.02-.41-.12-.11-.02-.01,0,.16.04.31.07.47.11.08.02.15.05.23.07.04.02.09.03.13.05.15.06.12.05-.1-.04.12,0,.3.15.41.21.05.03.1.07.15.1.28.17.05-.03-.01-.02.07,0,.31.3.36.34.09.09.24.16-.03-.06.06.05.11.16.15.23.09.14.23.5.1.15.07.19.13.37.17.57.18.79,1.09,1.26,1.85,1.05.81-.22,1.23-1.05,1.05-1.85-.84-3.7-5.32-4.7-8.45-3.42-1.77.72-3.17,2-3.77,3.84-.72,2.17-.25,4.58.87,6.52,1.31,2.28,3.47,3.99,5.92,4.9.74.27,1.68-.3,1.85-1.05.19-.85-.26-1.55-1.05-1.85h0Z"/><path d="m438.48,216.7c5.22-1.98,7.72-8.67,4.75-13.51-.26-.42-.77-.79-1.3-.74-7.15.62-8.99,8.64-9.08,14.6-.06,3.58.02,8.15,3.22,10.44,2.77,1.98,6.84,1.48,9.54-.37,3.95-2.7,5.21-7.68,6.18-12.08.42-1.88-2.48-2.68-2.89-.8-.7,3.16-1.4,6.69-3.61,9.19-1.63,1.84-4.52,3.01-6.9,1.95-2.69-1.2-2.52-5.2-2.53-7.67-.01-2.63.27-5.31,1.19-7.79.82-2.21,2.4-4.25,4.9-4.47l-1.3-.74c1.89,3.07.5,7.79-2.96,9.1-1.79.68-1.01,3.58.8,2.89h0Z"/><path d="m9.85,244.4c.23,8.62.45,17.23.68,25.85.06,2.23-.76,8.55,2.99,8.5,2.88-.04,2.95-5.1-.22-4.42-1.89.4-1.09,3.3.8,2.89-.05.01-1.6-.81-1.31-1.14.35-.4.86,0,.96-.53.07-.41-.11-1.14-.12-1.57l-.11-4.22-.22-8.45-.44-16.9c-.05-1.93-3.05-1.93-3,0h0Z"/><path d="m2.47,261.74c2.63-3.37,6.45-5.71,10.72-6.24l-1.3-.74c2.89,4.04,1.73,9.45,3.53,13.92s5.86,7.29,10.63,5.34c3.72-1.52,5.96-5.48,6-9.42s-2.41-7.54-6.25-8.85c-4.23-1.44-9.16.03-11.72,3.71-1.1,1.59,1.5,3.09,2.59,1.51,1.64-2.37,4.9-3.21,7.62-2.54,2.86.71,4.75,3.06,4.76,6.02s-1.54,5.84-4.29,6.86c-3.94,1.46-6.26-2.09-7.1-5.42-1.08-4.27-.48-8.88-3.18-12.65-.28-.4-.75-.81-1.3-.74-5.05.63-9.69,3.08-12.84,7.12-1.18,1.5.93,3.64,2.12,2.12h0Z"/><path d="m77.26,246.43c-.59,5.11-.02,10.3,1.65,15.16.58,1.68,2.74,1.25,2.95-.4s2.27-2.24,3.64-2.13c1.99.15,3.17,1.82,3.5,3.68.93,5.31-4.04,9.05-7.79,11.79l2.05.54c-1.34-3-.85-6.74,1.21-9.29,1.2-1.49-.91-3.62-2.12-2.12-2.99,3.7-3.62,8.58-1.68,12.93.31.69,1.45.98,2.05.54,3.01-2.2,6.19-4.52,7.99-7.87,1.5-2.8,1.9-6.31.54-9.24-1.25-2.68-3.92-4.23-6.86-3.9s-5.15,2.17-5.53,5.09l2.95-.4c-1.59-4.65-2.11-9.49-1.54-14.37.22-1.91-2.78-1.9-3,0h0Z"/><path d="m103.5,268.17c1.6-1.19,3.28-2.45,4.25-4.25.89-1.63,1.04-3.56.3-5.28s-2.54-2.89-4.49-2.64-3.62,1.66-4.63,3.32c-1.76,2.92-1.65,6.69-.13,9.68s4.68,4.92,8.08,4.89c3.7-.03,7.52-2.17,9.01-5.64.32-.74.22-1.61-.54-2.05-.63-.37-1.73-.21-2.05.54-.93,2.17-2.79,3.53-5.07,4.01-2.12.45-4.37-.12-5.89-1.83-1.42-1.59-2.01-4.07-1.58-6.09.25-1.17.7-2.18,1.61-3.04.41-.38.93-.73,1.49-.82.2-.03.4-.02.59.03.11.03.41.21.48.27.65.59.78,1.82.43,2.74-.58,1.53-2.11,2.62-3.37,3.56-.65.48-.98,1.3-.54,2.05.37.64,1.4,1.03,2.05.54h0Z"/><path d="m150.09,243.4c-.77,10.18-.31,20.39,1.32,30.47l2.89-.8c-1.34-7.21,3.92-14.67,11.01-16.16l-1.85-1.05c1.44,4.82,1.98,9.78,1.65,14.8-.13,1.93,2.87,1.92,3,0,.35-5.26-.25-10.54-1.75-15.6-.24-.81-1.04-1.22-1.85-1.05-8.79,1.84-14.73,11.11-13.11,19.85.36,1.91,3.2,1.08,2.89-.8-1.58-9.8-1.96-19.77-1.21-29.67.15-1.93-2.85-1.92-3,0h0Z"/><path d="m179.31,259.43c-.26.11.08-.02.18-.05.12-.04.24-.07.36-.1s.46-.07.15-.04c.14-.01.29-.03.43-.03.27,0,.54,0,.8.04-.31-.04.04.02.15.04.14.03.28.07.42.11s.28.09.42.14c.06.02.12.04.18.07-.06-.02-.26-.13-.01,0,.26.14.52.27.77.43.11.07.21.14.31.22-.23-.17.07.06.14.12.22.19.43.4.63.62.04.04.26.31.16.19s.14.2.17.26c.16.25.29.5.42.76-.13-.26.02.05.05.16.04.12.07.24.11.36.04.14.06.28.09.42-.07-.29,0,.03,0,.16,0,.15,0,.29,0,.44s-.04.37,0,.09c-.04.27-.1.54-.19.8-.02.07-.06.14-.08.22,0-.01.12-.24.04-.09-.06.12-.12.24-.18.36-.06.1-.11.2-.18.3s-.3.42-.1.17c-.16.2-.33.38-.51.56-.08.08-.17.16-.26.24-.04.04-.09.08-.13.11-.27.24.16-.09-.02.02-.22.13-.42.29-.65.41-.1.06-.21.11-.31.17s-.49.19-.18.09c-.24.08-.48.17-.73.24-.13.04-.27.07-.4.09-.07.01-.46.06-.26.05s-.19.01-.27.02c-.12,0-.23,0-.35,0-.14,0-.27-.01-.41-.02-.36-.02.14.04-.12-.01s-.52-.11-.78-.2c-.13-.05-.3-.14-.07-.02-.14-.07-.28-.13-.42-.21-.1-.06-.2-.13-.3-.19-.23-.14.16.16-.11-.08-.19-.17-.36-.4-.55-.56-.12-.1.05.07.06.09-.03-.04-.07-.09-.1-.13-.07-.11-.14-.21-.21-.33-.06-.1-.11-.19-.16-.29-.06-.12-.18-.46-.08-.15-.07-.23-.16-.46-.22-.69-.03-.13-.06-.26-.09-.38-.01-.05-.01-.11-.03-.17-.06-.19.01.26,0,.06,0-.28-.04-.56-.04-.85,0-.15,0-.3.02-.45,0-.06.01-.11.02-.17,0-.19-.06.29,0,0s.11-.56.19-.83c.04-.13.08-.25.12-.38.03-.07.05-.14.08-.21-.04.1-.1.21-.02.05.13-.25.25-.5.41-.73.04-.06.09-.12.13-.18.1-.17-.17.18-.03.04.1-.11.19-.23.29-.33.09-.09.18-.18.28-.27.04-.04.09-.07.13-.11.12-.13-.23.15,0,0,.26-.17.51-.32.78-.45.73-.34.92-1.4.54-2.05-.44-.75-1.32-.88-2.05-.54-2.56,1.2-3.95,4.11-3.9,6.85.05,2.93,1.71,5.65,4.56,6.58s5.95-.13,7.9-2.16c2.15-2.26,2.52-5.67.75-8.28-1.01-1.49-2.45-2.59-4.14-3.21s-3.52-.5-5.17.22c-.74.32-.91,1.41-.54,2.05.45.77,1.31.86,2.05.54h0Z"/><path d="m195.42,257.03l.11,13.93h3c-.13-2.79-.33-5.88.9-8.48.87-1.82,2.69-3.29,4.78-3.3,2.57-.01,3.3,2.73,3.84,4.77.85,3.19,1.14,6.47.95,9.77-.11,1.93,2.89,1.92,3,0,.17-3.03-.06-6.08-.7-9.05-.56-2.63-1.3-5.74-3.6-7.4-1.81-1.31-4.22-1.34-6.24-.53-2.37.94-4.04,2.74-5,5.09-1.17,2.88-1.07,6.09-.94,9.14.09,1.92,3.02,1.94,3,0l-.11-13.93c-.02-1.93-3.02-1.93-3,0h0Z"/><path d="m220.64,262.01c-1.18.81-1.48,2.23-.78,3.48s2.03,1.76,3.38,1.46,2.4-1.34,3.36-2.26,1.97-1.98,2.73-3.15c1.41-2.17,1.79-4.86.44-7.15-.61-1.03-1.53-1.88-2.66-2.29-.51-.18-1.07-.28-1.61-.24-.86.05-1.35.52-1.92,1.11-3.45,3.58-5.65,8.84-4.59,13.83.46,2.18,1.61,4.2,3.39,5.55,1.52,1.15,3.39,1.71,5.28,1.84,4.26.3,8.6-2.11,9.06-6.63.08-.81-.75-1.5-1.5-1.5-.88,0-1.42.69-1.5,1.5-.02.18-.12.64-.26,1,.07-.17-.12.24-.17.33s-.1.17-.16.25c0,0-.28.36-.12.17-.55.66-.94.92-1.74,1.31-1.27.61-3.15.75-4.61.42-1.75-.39-3.1-1.27-3.96-2.8-1.13-2.03-1.2-4.45-.64-6.66.69-2.75,2.25-5.2,4.31-7.13l-1.06.44c.96-.11,1.66.45,2.08,1.4.49,1.13.22,2.29-.38,3.33-.73,1.28-1.82,2.31-2.89,3.31-.42.39-.98,1.06-1.59,1.13-.13.01.07.06.02.09-.07.04-.02-.22-.07-.11-.16.31.45.06-.32.59.67-.46.97-1.32.54-2.05-.39-.66-1.38-1-2.05-.54h0Z"/><path d="m253.68,254.32c-3.14-1.63-6.71-2.07-10.14-1.22-1.38.34-1.48,2.62,0,2.89,2.73.5,4.54,2.7,5.22,5.36.64,2.52.18,5.62-2.23,7.15-.71.45-1.75.91-2.56.46-.59-.33-.81-.98-.52-1.42,1.05-1.63-1.54-3.13-2.59-1.51-1.54,2.38.36,5.57,2.98,6.01s5.36-1.31,6.78-3.54c2.21-3.45,1.69-8.36-.64-11.62-1.36-1.9-3.3-3.37-5.64-3.8v2.89c2.64-.65,5.42-.33,7.83.92,1.71.89,3.23-1.7,1.51-2.59h0Z"/><path d="m262.38,249.49c-1.26,10.2-1.39,20.51-.38,30.74.19,1.89,2.97,1.97,3,0,.03-1.67.05-3.35.08-5.02.03-1.93-2.97-1.93-3,0-.03,1.67-.05,3.35-.08,5.02h3c-1.01-10.23-.88-20.54.38-30.74.24-1.91-2.77-1.89-3,0h0Z"/><path d="m259.47,263.26l12.08-1.78c.8-.12,1.24-1.13,1.05-1.85-.24-.86-1.04-1.17-1.85-1.05l-12.08,1.78c-.8.12-1.24,1.13-1.05,1.85.24.86,1.04,1.17,1.85,1.05h0Z"/><path d="m284.8,276.71c1.93,0,1.93-3,0-3s-1.93,3,0,3h0Z"/><path d="m295.39,275.21v-3.03c0-.38-.17-.79-.44-1.06s-.69-.46-1.06-.44c-.81.04-1.5.66-1.5,1.5v3.03c0,.38.17.79.44,1.06s.69.46,1.06.44c.81-.04,1.5-.66,1.5-1.5h0Z"/><path d="m310.1,277.79l1.52-1.52c.15-.14.25-.3.31-.48.09-.18.14-.37.13-.58,0-.21-.04-.4-.13-.58-.06-.19-.16-.35-.31-.48-.29-.26-.66-.46-1.06-.44l-.4.05c-.25.07-.47.2-.66.39l-1.52,1.52c-.15.14-.25.3-.31.48-.09.18-.14.37-.13.58,0,.21.04.4.13.58.06.19.16.35.31.48.29.26.66.46,1.06.44l.4-.05c.25-.07.47-.2.66-.39h0Z"/></g></svg>