<svg width="0" height="0" class="hidden">
  <symbol xmlns="http://www.w3.org/2000/svg" viewBox="0 0 511 511.9" id="instagram">
    <path d="M510.95 150.5c-1.2-27.2-5.598-45.898-11.9-62.102-6.5-17.199-16.5-32.597-29.6-45.398-12.802-13-28.302-23.102-45.302-29.5-16.296-6.3-34.898-10.7-62.097-11.898C334.648.3 325.949 0 256.449 0s-78.199.3-105.5 1.5c-27.199 1.2-45.898 5.602-62.097 11.898-17.204 6.5-32.602 16.5-45.403 29.602-13 12.8-23.097 28.3-29.5 45.3-6.3 16.302-10.699 34.9-11.898 62.098C.75 177.801.449 186.5.449 256s.301 78.2 1.5 105.5c1.2 27.2 5.602 45.898 11.903 62.102 6.5 17.199 16.597 32.597 29.597 45.398 12.801 13 28.301 23.102 45.301 29.5 16.3 6.3 34.898 10.7 62.102 11.898 27.296 1.204 36 1.5 105.5 1.5s78.199-.296 105.5-1.5c27.199-1.199 45.898-5.597 62.097-11.898a130.934 130.934 0 0074.903-74.898c6.296-16.301 10.699-34.903 11.898-62.102 1.2-27.3 1.5-36 1.5-105.5s-.102-78.2-1.3-105.5zm-46.098 209c-1.102 25-5.301 38.5-8.801 47.5-8.602 22.3-26.301 40-48.602 48.602-9 3.5-22.597 7.699-47.5 8.796-27 1.204-35.097 1.5-103.398 1.5s-76.5-.296-103.403-1.5c-25-1.097-38.5-5.296-47.5-8.796C94.551 451.5 84.45 445 76.25 436.5c-8.5-8.3-15-18.3-19.102-29.398-3.5-9-7.699-22.602-8.796-47.5-1.204-27-1.5-35.102-1.5-103.403s.296-76.5 1.5-103.398c1.097-25 5.296-38.5 8.796-47.5C61.25 94.199 67.75 84.1 76.352 75.898c8.296-8.5 18.296-15 29.398-19.097 9-3.5 22.602-7.7 47.5-8.801 27-1.2 35.102-1.5 103.398-1.5 68.403 0 76.5.3 103.403 1.5 25 1.102 38.5 5.3 47.5 8.8 11.097 4.098 21.199 10.598 29.398 19.098 8.5 8.301 15 18.301 19.102 29.403 3.5 9 7.699 22.597 8.8 47.5 1.2 27 1.5 35.097 1.5 103.398s-.3 76.301-1.5 103.301zm0 0"></path>
    <path d="M256.45 124.5c-72.598 0-131.5 58.898-131.5 131.5s58.902 131.5 131.5 131.5c72.6 0 131.5-58.898 131.5-131.5s-58.9-131.5-131.5-131.5zm0 216.8c-47.098 0-85.302-38.198-85.302-85.3s38.204-85.3 85.301-85.3c47.102 0 85.301 38.198 85.301 85.3s-38.2 85.3-85.3 85.3zm167.402-222c0 16.954-13.747 30.7-30.704 30.7-16.953 0-30.699-13.746-30.699-30.7 0-16.956 13.746-30.698 30.7-30.698 16.956 0 30.703 13.742 30.703 30.699zm0 0"></path>
  </symbol>
  <symbol xmlns="http://www.w3.org/2000/svg" viewBox="0 0 511.976 511.976" id="snapchat">
    <path d="M501.94 374.42c-68.448-11.264-99.296-81.376-100.544-84.352-.096-.192-.16-.384-.288-.576-3.488-7.104-4.32-12.96-2.4-17.408 3.744-8.768 18.08-13.312 27.552-16.32 2.752-.864 5.344-1.696 7.488-2.528 9.344-3.68 16-7.68 20.416-12.192 5.248-5.408 6.272-10.592 6.208-13.952-.16-8.192-6.432-15.488-16.448-19.04-3.36-1.376-7.232-2.112-11.136-2.112-2.656 0-6.624.352-10.368 2.112-8 3.744-15.168 5.792-21.344 6.08-3.264-.16-5.568-.864-7.072-1.536.192-3.2.384-6.496.608-9.888l.096-1.472c2.208-34.656 4.928-77.76-6.528-103.36-7.84-17.536-18.368-32.608-31.328-44.832-10.848-10.24-23.456-18.56-37.472-24.704-24.352-10.752-47.072-12.352-58.464-12.352h-1.28c-3.168.032-8.32.096-8.8.096-11.36 0-34.112 1.6-58.528 12.352-13.984 6.144-26.528 14.432-37.344 24.672-12.896 12.224-23.392 27.264-31.2 44.736-11.456 25.568-8.736 68.672-6.56 103.296v.064c.224 3.712.48 7.584.704 11.36-1.664.736-4.384 1.568-8.384 1.568-6.464 0-14.144-2.048-22.816-6.112-2.56-1.184-5.472-1.792-8.672-1.792-5.152 0-10.624 1.504-15.328 4.288-5.952 3.488-9.792 8.384-10.848 13.856-.672 3.584-.64 10.72 7.296 17.952 4.384 3.968 10.784 7.648 19.072 10.912 2.176.864 4.768 1.664 7.488 2.528 9.472 3.008 23.84 7.552 27.584 16.32 1.888 4.448 1.056 10.304-2.432 17.408a4.533 4.533 0 00-.256.576c-.896 2.048-9.056 20.448-25.792 39.872-9.504 11.04-19.968 20.288-31.104 27.456-13.6 8.768-28.288 14.464-43.68 16.992-6.048.992-10.368 6.368-10.016 12.48.096 1.76.512 3.52 1.248 5.216v.032c2.464 5.728 8.128 10.56 17.344 14.816 11.264 5.216 28.096 9.6 50.08 13.024 1.12 2.112 2.272 7.392 3.072 11.008.832 3.84 1.696 7.808 2.944 12 1.344 4.544 4.8 9.984 13.728 9.984 3.392 0 7.264-.768 11.776-1.632 6.592-1.28 15.616-3.04 26.848-3.04 6.24 0 12.704.544 19.2 1.632 12.544 2.08 23.36 9.696 35.872 18.528 18.304 12.928 39.04 27.552 70.72 27.552.864 0 1.728-.032 2.592-.096a62.21 62.21 0 003.68.096c31.68 0 52.416-14.624 70.72-27.52l.032-.032c12.512-8.8 23.328-16.416 35.872-18.496 6.496-1.088 12.96-1.632 19.2-1.632 10.752 0 19.264 1.376 26.848 2.848 4.96.96 8.8 1.44 11.776 1.44h.576c6.528 0 11.328-3.584 13.152-9.824 1.216-4.128 2.08-7.968 2.944-11.904.736-3.392 1.952-8.832 3.04-10.944 21.984-3.456 38.816-7.808 50.08-13.024 9.184-4.256 14.848-9.088 17.312-14.784.736-1.696 1.184-3.456 1.28-5.28.352-6.048-3.968-11.456-10.016-12.416z"></path>
  </symbol>
  <symbol xmlns="http://www.w3.org/2000/svg" viewBox="0 0 24 24" id="spotify">
    <path d="M12 24c6.624 0 12-5.376 12-12S18.624 0 12 0 0 5.376 0 12s5.376 12 12 12zm4.872-6.344v.001c-.807 0-3.356-2.828-10.52-1.36-.189.049-.436.126-.576.126-.915 0-1.09-1.369-.106-1.578 3.963-.875 8.013-.798 11.467 1.268.824.526.474 1.543-.265 1.543zm1.303-3.173c-.113-.03-.08.069-.597-.203-3.025-1.79-7.533-2.512-11.545-1.423-.232.063-.358.126-.576.126-1.071 0-1.355-1.611-.188-1.94 4.716-1.325 9.775-.552 13.297 1.543.392.232.547.533.547.953a.938.938 0 01-.938.944zM4.548 6.998c4.523-1.324 11.368-.906 15.624 1.578 1.091.629.662 2.22-.498 2.22l-.001-.001c-.252 0-.407-.063-.625-.189C15.605 8.55 9.444 8.057 5.458 9.17c-.175.048-.393.125-.625.125-.639 0-1.127-.499-1.127-1.142 0-.657.407-1.029.842-1.155z"></path>
  </symbol>
  <symbol xmlns="http://www.w3.org/2000/svg" viewBox="0 0 512 512" id="twitter">
    <path d="M512 97.248c-19.04 8.352-39.328 13.888-60.48 16.576 21.76-12.992 38.368-33.408 46.176-58.016-20.288 12.096-42.688 20.64-66.56 25.408C411.872 60.704 384.416 48 354.464 48c-58.112 0-104.896 47.168-104.896 104.992 0 8.32.704 16.32 2.432 23.936-87.264-4.256-164.48-46.08-216.352-109.792-9.056 15.712-14.368 33.696-14.368 53.056 0 36.352 18.72 68.576 46.624 87.232-16.864-.32-33.408-5.216-47.424-12.928v1.152c0 51.008 36.384 93.376 84.096 103.136-8.544 2.336-17.856 3.456-27.52 3.456-6.72 0-13.504-.384-19.872-1.792 13.6 41.568 52.192 72.128 98.08 73.12-35.712 27.936-81.056 44.768-130.144 44.768-8.608 0-16.864-.384-25.12-1.44C46.496 446.88 101.6 464 161.024 464c193.152 0 298.752-160 298.752-298.688 0-4.64-.16-9.12-.384-13.568 20.832-14.784 38.336-33.248 52.608-54.496z"></path>
  </symbol>
  <symbol xmlns="http://www.w3.org/2000/svg" viewBox="0 0 512 512" id="facebook">
    <path d="M512 256C512 114.6 397.4 0 256 0S0 114.6 0 256s114.6 256 256 256c1.5 0 3 0 4.5-.1V312.7h-55v-64.1h55v-47.2c0-54.7 33.4-84.5 82.2-84.5 23.4 0 43.5 1.7 49.3 2.5v57.2h-33.6c-26.5 0-31.7 12.6-31.7 31.1v40.8h63.5l-8.3 64.1h-55.2v189.5C433.7 471.4 512 372.9 512 256z"></path>
  </symbol>
  <symbol xmlns="http://www.w3.org/2000/svg" viewBox="0 0 438.549 438.549" id="github">
    <path d="M409.132 114.573c-19.608-33.596-46.205-60.194-79.798-79.8-33.598-19.607-70.277-29.408-110.063-29.408-39.781 0-76.472 9.804-110.063 29.408-33.596 19.605-60.192 46.204-79.8 79.8C9.803 148.168 0 184.854 0 224.63c0 47.78 13.94 90.745 41.827 128.906 27.884 38.164 63.906 64.572 108.063 79.227 5.14.954 8.945.283 11.419-1.996 2.475-2.282 3.711-5.14 3.711-8.562 0-.571-.049-5.708-.144-15.417a2549.81 2549.81 0 01-.144-25.406l-6.567 1.136c-4.187.767-9.469 1.092-15.846 1-6.374-.089-12.991-.757-19.842-1.999-6.854-1.231-13.229-4.086-19.13-8.559-5.898-4.473-10.085-10.328-12.56-17.556l-2.855-6.57c-1.903-4.374-4.899-9.233-8.992-14.559-4.093-5.331-8.232-8.945-12.419-10.848l-1.999-1.431c-1.332-.951-2.568-2.098-3.711-3.429-1.142-1.331-1.997-2.663-2.568-3.997-.572-1.335-.098-2.43 1.427-3.289 1.525-.859 4.281-1.276 8.28-1.276l5.708.853c3.807.763 8.516 3.042 14.133 6.851 5.614 3.806 10.229 8.754 13.846 14.842 4.38 7.806 9.657 13.754 15.846 17.847 6.184 4.093 12.419 6.136 18.699 6.136 6.28 0 11.704-.476 16.274-1.423 4.565-.952 8.848-2.383 12.847-4.285 1.713-12.758 6.377-22.559 13.988-29.41-10.848-1.14-20.601-2.857-29.264-5.14-8.658-2.286-17.605-5.996-26.835-11.14-9.235-5.137-16.896-11.516-22.985-19.126-6.09-7.614-11.088-17.61-14.987-29.979-3.901-12.374-5.852-26.648-5.852-42.826 0-23.035 7.52-42.637 22.557-58.817-7.044-17.318-6.379-36.732 1.997-58.24 5.52-1.715 13.706-.428 24.554 3.853 10.85 4.283 18.794 7.952 23.84 10.994 5.046 3.041 9.089 5.618 12.135 7.708 17.705-4.947 35.976-7.421 54.818-7.421s37.117 2.474 54.823 7.421l10.849-6.849c7.419-4.57 16.18-8.758 26.262-12.565 10.088-3.805 17.802-4.853 23.134-3.138 8.562 21.509 9.325 40.922 2.279 58.24 15.036 16.18 22.559 35.787 22.559 58.817 0 16.178-1.958 30.497-5.853 42.966-3.9 12.471-8.941 22.457-15.125 29.979-6.191 7.521-13.901 13.85-23.131 18.986-9.232 5.14-18.182 8.85-26.84 11.136-8.662 2.286-18.415 4.004-29.263 5.146 9.894 8.562 14.842 22.077 14.842 40.539v60.237c0 3.422 1.19 6.279 3.572 8.562 2.379 2.279 6.136 2.95 11.276 1.995 44.163-14.653 80.185-41.062 108.068-79.226 27.88-38.161 41.825-81.126 41.825-128.906-.01-39.771-9.818-76.454-29.414-110.049z"></path>
  </symbol>
</svg>
